<svg width="16" height="16" viewBox="0 0 16 16" xmlns="http://www.w3.org/2000/svg">
<path d="M8.00002 2C11.7275 2 14.675 5.42 13.865 9.29C13.355 11.7125 11.315 13.595 8.86252 13.94C7.67002 14.105 6.50752 13.9325 5.42752 13.415C5.22502 13.3175 5.00752 13.2725 4.78252 13.2725C4.64002 13.2725 4.49752 13.295 4.36252 13.3325L2.63002 13.8425C2.34502 13.925 2.07502 13.6625 2.15752 13.37L2.68252 11.5775C2.78002 11.24 2.73502 10.8875 2.57752 10.565C2.19502 9.755 2.00002 8.885 2.00002 8C2.00002 4.6925 4.69252 2 8.00002 2ZM8.00002 0.5C3.86002 0.5 0.500021 3.86 0.500021 8C0.500021 9.155 0.770021 10.235 1.22752 11.2175L0.132521 14.9375C-0.0324794 15.5 0.500021 16.0325 1.07002 15.86L4.79002 14.765C6.03502 15.3575 7.46002 15.6275 8.97502 15.4325C12.395 14.99 15.1325 12.17 15.47 8.7425C15.8975 4.2725 12.3875 0.5 8.00002 0.5Z" />
</svg>
